<?xml version="1.0" encoding="utf-8"?>
<!-- Generator: Adobe Illustrator 27.5.0, SVG Export Plug-In . SVG Version: 6.00 Build 0)  -->
<svg version="1.1" xmlns="http://www.w3.org/2000/svg" xmlns:xlink="http://www.w3.org/1999/xlink" x="0px" y="0px"
	 viewBox="0 0 500 500" style="enable-background:new 0 0 500 500;" xml:space="preserve">
<g id="BACKGROUND">
	<g>
		<rect style="fill:#FFFFFF;" width="500" height="500"/>
	</g>
</g>
<g id="OBJECTS">
	<g>
		<linearGradient id="SVGID_1_" gradientUnits="userSpaceOnUse" x1="260.5503" y1="327.1086" x2="289.3082" y2="162.55">
			<stop  offset="0" style="stop-color:#FF512F"/>
			<stop  offset="1" style="stop-color:#F09819"/>
		</linearGradient>
		<path style="fill:url(#SVGID_1_);" d="M287.8,195.12c-1.16-1.16-3.04-1.16-4.2,0l-5.95,5.95c-1.16,1.16-1.16,3.05,0,4.21
			s3.04,1.16,4.2,0l5.95-5.95C288.97,198.17,288.97,196.28,287.8,195.12z"/>
		
			<linearGradient id="SVGID_00000079480778441788149010000000868365269473726899_" gradientUnits="userSpaceOnUse" x1="191.2573" y1="315.0025" x2="220.0159" y2="150.4401">
			<stop  offset="0" style="stop-color:#FF512F"/>
			<stop  offset="1" style="stop-color:#F09819"/>
		</linearGradient>
		<path style="fill:url(#SVGID_00000079480778441788149010000000868365269473726899_);" d="M216.4,195.12
			c-1.16-1.16-3.04-1.16-4.21,0l-5.95,5.95c-1.16,1.16-1.16,3.05,0,4.21c1.17,1.16,3.05,1.16,4.21,0l5.95-5.95
			C217.56,198.17,217.56,196.28,216.4,195.12z"/>
		
			<linearGradient id="SVGID_00000019669991410723306260000001409472911061866653_" gradientUnits="userSpaceOnUse" x1="244.0937" y1="324.2383" x2="272.8529" y2="159.6723">
			<stop  offset="0" style="stop-color:#FF512F"/>
			<stop  offset="1" style="stop-color:#F09819"/>
		</linearGradient>
		<path style="fill:url(#SVGID_00000019669991410723306260000001409472911061866653_);" d="M272.93,183.22
			c-1.16-1.16-3.05-1.16-4.21,0l-5.95,5.95c-1.16,1.16-1.16,3.05,0,4.21c1.16,1.16,3.05,1.16,4.21,0l5.95-5.95
			C274.09,186.27,274.09,184.38,272.93,183.22z"/>
		
			<linearGradient id="SVGID_00000036231302452094815140000001816652462123761339_" gradientUnits="userSpaceOnUse" x1="209.4516" y1="318.1847" x2="238.2108" y2="153.6187">
			<stop  offset="0" style="stop-color:#FF512F"/>
			<stop  offset="1" style="stop-color:#F09819"/>
		</linearGradient>
		<path style="fill:url(#SVGID_00000036231302452094815140000001816652462123761339_);" d="M237.23,183.22
			c-1.16-1.16-3.05-1.16-4.21,0l-5.95,5.95c-1.16,1.16-1.16,3.05,0,4.21c1.16,1.16,3.05,1.16,4.21,0l5.95-5.95
			C238.39,186.27,238.39,184.38,237.23,183.22z"/>
		
			<linearGradient id="SVGID_00000174575687116312268920000016252232096493089450_" gradientUnits="userSpaceOnUse" x1="225.9047" y1="321.0542" x2="254.6627" y2="156.4956">
			<stop  offset="0" style="stop-color:#FF512F"/>
			<stop  offset="1" style="stop-color:#F09819"/>
		</linearGradient>
		<path style="fill:url(#SVGID_00000174575687116312268920000016252232096493089450_);" d="M252.1,195.12
			c-1.16-1.16-3.04-1.16-4.2,0l-5.95,5.95c-1.17,1.16-1.17,3.05,0,4.21c1.16,1.16,3.04,1.16,4.2,0l5.95-5.95
			C253.27,198.17,253.27,196.28,252.1,195.12z"/>
		
			<linearGradient id="SVGID_00000002352769272226503670000010937839514347381931_" gradientUnits="userSpaceOnUse" x1="236.3252" y1="322.8792" x2="265.0841" y2="158.3151">
			<stop  offset="0" style="stop-color:#FF512F"/>
			<stop  offset="1" style="stop-color:#F09819"/>
		</linearGradient>
		<path style="fill:url(#SVGID_00000002352769272226503670000010937839514347381931_);" d="M317.24,247.8h-2.98v-9.59
			c0.12-0.1,0.25-0.2,0.37-0.32c1.93-1.76,5.96-2.88,8.59-2.91c1.65-0.03,2.96-1.37,2.94-3.02c-0.02-1.63-1.35-2.93-2.97-2.93h-0.04
			c-2.55,0.03-5.95,0.71-8.89,2.1v-7.8c3.62-1.48,6.03-5.21,5.52-9.35c-3.51-28.21-27.63-49.48-56.09-49.48h-27.38
			c-28.46,0-52.58,21.27-56.09,49.48c-0.51,4.12,1.88,7.86,5.52,9.35V231c-2.95-1.34-6.36-2.01-8.97-1.97
			c-1.64,0.02-2.95,1.37-2.93,3.01c0.02,1.63,1.35,2.94,2.97,2.94h0.04c2.66-0.05,6.79,1.07,8.81,2.9c0.02,0.03,0.05,0.05,0.08,0.08
			v9.84h-2.98c-4.93,0-8.92,4-8.92,8.93c0,4.42,3.23,8.1,7.46,8.8c-0.7,1.84-0.75,3.84-0.1,5.75c3.69,10.87,13.88,18.17,25.36,18.17
			h86.88c11.48,0,21.68-7.3,25.36-18.18c0.65-1.9,0.6-3.9-0.1-5.74c4.15-0.68,7.46-4.29,7.46-8.8
			C326.16,251.81,322.16,247.8,317.24,247.8z M186.13,214.71c3.14-25.23,24.71-44.26,50.18-44.26h27.38
			c25.47,0,47.04,19.03,50.18,44.26c0.22,1.72-1.13,3.22-2.78,3.33h-0.06c-0.05,0.01-0.1,0.01-0.15,0.01H189.12
			C187.37,218.05,185.91,216.51,186.13,214.71z M296.78,233.5c-6.54-5.96-15.32-5.96-21.86,0c-4.27,3.89-9.57,3.89-13.84,0
			c-6.54-5.96-15.32-5.96-21.86,0c-4.27,3.89-9.57,3.89-13.84,0c-6.54-5.96-15.32-5.96-21.86,0c-3.62,3.3-7.96,3.82-11.83,1.5v-11
			h116.62v11.17C304.52,237.29,300.29,236.7,296.78,233.5z M308.31,241.63v6.17H191.69v-6.26c1.61,0.55,3.26,0.83,4.91,0.83
			c3.84,0,7.67-1.5,10.93-4.48c4.27-3.89,9.57-3.89,13.84,0c6.54,5.97,15.32,5.97,21.86,0c4.27-3.89,9.57-3.89,13.84,0
			c6.54,5.97,15.32,5.97,21.86,0c4.27-3.89,9.57-3.89,13.84,0C297.32,242.05,303.03,243.32,308.31,241.63z M313.17,269.36
			c-2.87,8.46-10.8,14.14-19.73,14.14h-86.88c-8.93,0-16.86-5.68-19.73-14.13c-0.61-1.83,0.96-3.72,2.91-3.72h120.52
			C312.22,265.65,313.78,267.55,313.17,269.36z M317.24,259.7H182.76c-1.64,0-2.97-1.33-2.97-2.97c0-1.65,1.33-2.98,2.97-2.98
			h134.48c1.64,0,2.97,1.34,2.97,2.98C320.21,258.37,318.88,259.7,317.24,259.7z"/>
	</g>
	<g>
		
			<linearGradient id="SVGID_00000026858964873665690500000016826787814342319032_" gradientUnits="userSpaceOnUse" x1="143.2499" y1="385.5474" x2="159.7716" y2="2.0694">
			<stop  offset="0" style="stop-color:#FF512F"/>
			<stop  offset="1" style="stop-color:#F09819"/>
		</linearGradient>
		<path style="fill:url(#SVGID_00000026858964873665690500000016826787814342319032_);" d="M113.808,145.229h94.494
			c1.283,0,2.323,1.04,2.323,2.323l0,0c0,1.283-1.04,2.323-2.323,2.323h-94.494c-7.425,0-13.444,6.019-13.444,13.444v25.628
			c0,1.218-0.886,2.322-2.1,2.431c-1.393,0.125-2.547-0.965-2.547-2.319v-25.74C95.718,153.328,103.817,145.229,113.808,145.229z"/>
		
			<linearGradient id="SVGID_00000096053878057951487410000010553499563662241200_" gradientUnits="userSpaceOnUse" x1="338.5483" y1="360.4217" x2="353.3125" y2="17.7362">
			<stop  offset="0" style="stop-color:#FF512F"/>
			<stop  offset="1" style="stop-color:#F09819"/>
		</linearGradient>
		<path style="fill:url(#SVGID_00000096053878057951487410000010553499563662241200_);" d="M404.283,163.354v25.537
			c0,1.238-0.888,2.38-2.121,2.488c-1.377,0.12-2.525-0.968-2.525-2.32v-25.705c0-7.444-6.035-13.479-13.479-13.479h-94.46
			c-1.283,0-2.323-1.04-2.323-2.323l0,0c0-1.283,1.04-2.323,2.323-2.323h94.46C396.168,145.229,404.283,153.344,404.283,163.354z"/>
	</g>
	<g>
		<text transform="matrix(1 0 0 1 45.6602 271.0898)" style="font-family:'Antonio-Bold'; font-size:58.1001px; letter-spacing:5;">BBQ</text>
		
			<text transform="matrix(1 0 0 1 351.6602 271.0898)" style="font-family:'Antonio-Bold'; font-size:58.1001px; letter-spacing:5;">BRO</text>
	</g>
	<g>
		
			<linearGradient id="SVGID_00000058560004060666967790000010747869562510346429_" gradientUnits="userSpaceOnUse" x1="245.9035" y1="442.5462" x2="264.9165" y2="1.2447">
			<stop  offset="0" style="stop-color:#FF512F"/>
			<stop  offset="1" style="stop-color:#F09819"/>
		</linearGradient>
		<path style="fill:url(#SVGID_00000058560004060666967790000010747869562510346429_);" d="M386.189,378.25H113.811
			c-9.977,0-18.094-8.116-18.094-18.093V334.42c0-1.285,1.04-2.324,2.324-2.324c1.285,0,2.324,1.039,2.324,2.324v25.737
			c0,7.415,6.03,13.445,13.445,13.445h272.378c7.415,0,13.445-6.03,13.445-13.445V334.42c0-1.285,1.039-2.324,2.324-2.324
			c1.285,0,2.324,1.039,2.324,2.324v25.737C404.283,370.134,396.167,378.25,386.189,378.25z"/>
	</g>
	<g>
		<g>
			<g>
				<path d="M442.945,349.557c-61.257-30.73-124.418-46.459-192.945-47.928c-68.512,1.469-131.682,17.195-192.945,47.928
					c12.139,7.258,18.002,11.095,29.288,19.13c-0.925,13.824-1.121,20.698-0.991,34.314c52.62-26.146,105.905-39.42,164.647-40.899
					C308.742,363.58,362.02,376.85,414.648,403c0.13-13.616-0.065-20.49-0.991-34.314
					C424.943,360.652,430.806,356.815,442.945,349.557z"/>
			</g>
		</g>
		<path id="SVGID_x5F_00000108286945240724609690000013090359174542982547_x5F_" style="fill:none;" d="M84.188,394.348
			c52.62-26.146,105.905-39.42,164.647-40.899c58.742,1.479,112.02,14.748,164.648,40.899"/>
		<text>		<textPath  xlink:href="#SVGID_x5F_00000108286945240724609690000013090359174542982547_x5F_" startOffset="0%">
<tspan  style="fill:#F9F8F7; font-family:'Antonio-Light'; font-size:49px; letter-spacing:100;">BARBECUE</tspan>		</textPath>
</text>
	</g>
	<g>
		<g>
			<path d="M255.688,97c0,0-18.066,6.674-18.058,20.022c0.006,10.214,14.525,12.955,14.525,20.807s-10.599,15.703-10.599,15.703
				s18.843-6.281,19.236-18.059c0.393-11.777-12.849-12.903-12.369-20.022C249.215,103.674,255.688,97,255.688,97z"/>
			<g>
				<path d="M230.142,111.462c0,0-14.699,5.43-14.693,16.29c0.005,8.311,11.818,10.541,11.818,16.929
					c0,6.388-8.624,12.777-8.624,12.777s15.332-5.111,15.651-14.693c0.319-9.583-10.454-10.498-10.064-16.29
					C224.876,116.892,230.142,111.462,230.142,111.462z"/>
				<path d="M280.393,111.462c0,0-14.699,5.43-14.694,16.29c0.005,8.311,11.818,10.541,11.818,16.929
					c0,6.388-8.624,12.777-8.624,12.777s15.331-5.111,15.651-14.693c0.32-9.583-10.454-10.498-10.064-16.29
					C275.125,116.892,280.393,111.462,280.393,111.462z"/>
			</g>
		</g>
	</g>
</g>
</svg>
